Coordinates
version=1
nRows=28
nColumns=23
inDegrees=yes

Units are S.I. units (second, meters, Newtons, ...)
If the header above contains a line with 'inDegrees', this indicates whether rotational values are in degrees (yes) or radians (no).

endheader
time	pelvis_tilt	pelvis_list	pelvis_rotation	pelvis_tx	pelvis_ty	pelvis_tz	hip_flexion_r	hip_adduction_r	hip_rotation_r	knee_angle_r	knee_angle_r_beta	ankle_angle_r	subtalar_angle_r	mtp_angle_r	hip_flexion_l	hip_adduction_l	hip_rotation_l	knee_angle_l	knee_angle_l_beta	ankle_angle_l	subtalar_angle_l	mtp_angle_l
      7.50000000	    -11.47404764	      0.69876577	     -4.25663722	      2.05782394	      1.02236848	      1.05151991	     52.10912702	      8.41383613	      6.98229982	     52.92030798	      0.92363362	     19.05698124	    -19.17154890	      0.00000000	    -11.53364135	      2.67211056	     -8.44371327	     33.45439481	      0.58388934	    -17.33788040	     -3.03543893	      0.00000000
      7.50666667	    -11.25244037	      0.87319908	     -4.29364106	      2.05803139	      1.02180984	      1.05176196	     50.85827523	      8.15785118	      7.24298639	     49.19460495	      0.85860783	     19.46038278	    -16.67021709	      0.00000000	    -11.03035226	      3.11823462	     -6.96788011	     36.48322671	      0.63675243	    -16.30562926	     -4.62142200	      0.00000000
      7.51333333	    -10.80582106	      1.00028234	     -4.16330982	      2.05834531	      1.02121239	      1.05134763	     49.35451088	      7.60002769	      7.01346135	     45.68053479	      0.79727574	     20.22144466	    -12.78654252	      0.00000000	    -10.67933677	      3.68162998	     -5.12242145	     39.61995558	      0.69149867	    -15.56103573	     -6.40317508	      0.00000000
      7.52000000	    -10.54080170	      1.10822562	     -4.11763783	      2.05846077	      1.01982649	      1.05102653	     47.99657909	      7.27064169	      7.12422897	     42.31108712	      0.73846778	     20.59836407	     -9.36941044	      0.00000000	     -9.95915081	      4.21064619	     -3.64129719	     43.07929361	      0.75187551	    -14.89015588	     -7.91108544	      0.00000000
      7.52666667	    -10.19674943	      1.13270108	     -4.11357594	      2.05861293	      1.01811178	      1.05056569	     46.54114054	      7.02700067	      7.21580470	     39.18641544	      0.68393197	     20.90529807	     -5.79372282	      0.00000000	     -9.23366721	      4.68491687	     -2.41470316	     46.66631368	      0.81448082	    -14.43808749	     -9.28080675	      0.00000000
      7.53333333	     -9.78721717	      1.01089915	     -4.17120162	      2.05883540	      1.01601851	      1.05011760	     45.01191635	      6.98145760	      7.35966401	     36.34550704	      0.63434877	     20.95741999	     -2.48359795	      0.00000000	     -8.50042175	      4.98040247	     -1.55210085	     50.38156773	      0.87932424	    -14.18799337	    -10.44319444	      0.00000000
      7.54000000	     -9.36124138	      0.75514962	     -4.23265040	      2.05904120	      1.01354916	      1.04965709	     43.47847116	      7.08606321	      7.50607140	     33.82071053	      0.59028275	     20.64458931	      0.25978959	      0.00000000	     -7.68440304	      5.06670886	     -0.99940703	     54.22900205	      0.94647464	    -14.04643274	    -11.42706201	      0.00000000
      7.54666667	     -9.06033718	      0.49247278	     -4.46466749	      2.05910028	      1.01038592	      1.04948285	     42.17838549	      7.40848762	      7.95816899	     31.78372469	      0.55473064	     19.93465753	      2.16085251	      0.00000000	     -6.64350635	      5.08178541	     -0.84772840	     58.15968881	      1.01507806	    -14.11015009	    -12.37211750	      0.00000000
      7.55333333	     -8.67966516	      0.18343002	     -4.78891526	      2.05908645	      1.00691336	      1.04943827	     40.93039097	      7.80032643	      8.26634155	     30.31893271	      0.52916520	     18.90419249	      3.65668521	      0.00000000	     -5.62870788	      4.98634535	     -0.98070069	     62.09639632	      1.08378657	    -14.17600499	    -13.29674560	      0.00000000
      7.56000000	     -8.26233296	     -0.51971544	     -4.98128298	      2.05919369	      1.00319522	      1.04935353	     39.74163672	      8.40576170	      7.96653852	     29.39304459	      0.51300541	     17.36551196	      4.55386114	      0.00000000	     -4.60540663	      4.30257034	     -1.25355544	     66.14077713	      1.15437433	    -14.36171363	    -14.00313933	      0.00000000
      7.56666667	     -7.54184420	     -1.48015844	     -5.22712543	      2.05928165	      0.99974292	      1.04949259	     38.25604420	      9.31075165	      7.62455667	     28.88404589	      0.50412170	     15.34139144	      4.36538985	      0.00000000	     -3.90688297	      3.20287310	     -1.78984864	     70.11886712	      1.22380510	    -14.38607961	    -14.50332949	      0.00000000
      7.57333333	     -7.24140219	     -2.22306278	     -5.57820459	      2.05889633	      0.99516864	      1.04980767	     37.57091677	     10.09583824	      7.12245349	     29.31920080	      0.51171659	     13.21648937	      3.80705951	      0.00000000	     -2.64022765	      2.27581096	     -2.37855384	     74.16146530	      1.29436175	    -14.42035884	    -15.26171960	      0.00000000
      7.58000000	     -6.92302905	     -3.00505025	     -6.01503356	      2.05820516	      0.99035209	      1.05046339	     37.04162928	     10.98703147	      6.53578038	     30.41672811	      0.53087205	     11.16588683	      2.90802057	      0.00000000	     -1.34343594	      1.15352929	     -3.12458092	     78.17231628	      1.36436430	    -14.40268282	    -16.10130302	      0.00000000
      7.58666667	     -6.92246030	     -3.59142249	     -6.66658179	      2.05689651	      0.98474602	      1.05157233	     37.03054492	     12.01073496	      6.59654093	     32.15154701	      0.56115035	      9.25056082	      0.67858230	      0.00000000	      0.39464600	      0.11576730	     -4.02432889	     82.18914201	      1.43447114	    -14.14136051	    -16.80090629	      0.00000000
      7.59333333	     -6.91151809	     -4.22672731	     -7.24186944	      2.05544702	      0.97910048	      1.05255580	     37.11384830	     12.95657180	      6.26371621	     34.35775607	      0.59965597	      8.10875757	     -0.89479702	      0.00000000	      2.16715276	     -1.05362285	     -4.78504869	     86.13433111	      1.50332768	    -13.82126531	    -17.60092814	      0.00000000
      7.60000000	     -6.86785520	     -5.07154922	     -7.79598289	      2.05386725	      0.97362347	      1.05350992	     37.13330275	     14.07029480	      5.80898212	     36.75966976	      0.64157727	      7.82551701	     -2.04435973	      0.00000000	      3.91000568	     -2.59628666	     -5.49336182	     89.98713289	      1.57057175	    -13.41975939	    -18.44613365	      0.00000000
      7.60666667	     -7.17963431	     -5.23640838	     -8.60059524	      2.05136634	      0.96753069	      1.05484803	     37.69153031	     14.89375111	      6.18479924	     39.60579007	      0.69125144	      8.12804521	     -3.45283734	      0.00000000	      6.25812571	     -3.41018766	     -6.24122462	     93.73752783	      1.63602849	    -12.90261598	    -19.23898318	      0.00000000
      7.61333333	     -7.34108721	     -5.72267145	     -9.27888801	      2.04888411	      0.96215536	      1.05594880	     37.87074251	     15.88800394	      6.32768677	     42.20744745	      0.73665893	      9.12057458	     -4.28488425	      0.00000000	      8.45285786	     -4.68641339	     -6.79698777	     97.33623695	      1.69883782	    -12.23758924	    -19.82554023	      0.00000000
      7.62000000	     -7.59990337	     -6.05904722	    -10.00914487	      2.04610735	      0.95706305	      1.05706380	     38.01910803	     16.82572626	      6.73399278	     44.67933052	      0.77980143	     10.60093849	     -4.82679219	      0.00000000	     10.85587003	     -5.86196993	     -7.26342405	    100.73777962	      1.75820594	    -11.61379027	    -20.47670054	      0.00000000
      7.62666667	     -7.11766648	     -6.76939138	    -10.49710197	      2.04369346	      0.95388936	      1.05762892	     37.00805303	     17.76668448	      6.84513500	     46.61156067	      0.81352520	     12.24146284	     -5.17082944	      0.00000000	     12.40603786	     -7.31046373	     -7.41918009	    103.75485090	      1.81086376	    -11.01967009	    -21.21058525	      0.00000000
      7.63333333	     -6.99909560	     -7.34962857	    -11.05863821	      2.04091208	      0.95085500	      1.05832531	     36.16858508	     18.77439888	      7.39930830	     48.22491003	      0.84168346	     14.18950774	     -5.28604634	      0.00000000	     14.49959890	     -8.68612871	     -7.42290355	    106.60600525	      1.86062579	    -10.30896566	    -21.65173578	      0.00000000
      7.64000000	     -8.38621924	     -6.74950821	    -11.99744527	      2.03692151	      0.94580035	      1.05966828	     37.14747691	     19.12896821	      8.53716239	     50.09608563	      0.87434164	     16.14618245	     -5.14654827	      0.00000000	     18.67719480	     -9.16731155	     -7.66199966	    109.44303599	      1.91014132	     -9.37465972	    -21.43964193	      0.00000000
      7.64666667	     -8.62534258	     -6.80556225	    -12.47744039	      2.03396230	      0.94359317	      1.06012588	     36.40615468	     19.48924164	      9.12491216	     51.19761442	      0.89356694	     18.10535915	     -4.70355184	      0.00000000	     21.45872654	    -10.01137057	     -7.42031231	    111.70906812	      1.94969104	     -8.74741526	    -21.70345509	      0.00000000
      7.65333333	     -8.58631046	     -7.07166986	    -12.77683871	      2.03145632	      0.94279915	      1.06044221	     35.01806854	     19.84962364	      9.64363223	     51.72382206	      0.90275100	     19.84336688	     -4.31868246	      0.00000000	     23.92414397	    -10.99601564	     -6.91378718	    113.57150573	      1.98219671	     -8.04198732	    -21.64920802	      0.00000000
      7.66000000	     -8.37593270	     -7.17286566	    -12.94667502	      2.02933057	      0.94304122	      1.06049479	     33.26097831	     19.88637618	     10.22051329	     51.92266690	      0.90622149	     21.47714526	     -4.07662942	      0.00000000	     26.23447277	    -11.62145264	     -6.32440434	    114.99718085	      2.00707944	     -7.44366043	    -21.76513465	      0.00000000
      7.66666667	     -8.45327000	     -7.29492480	    -12.89808690	      2.02758261	      0.94349761	      1.06039415	     31.70927837	     19.69212016	     10.29298348	     51.83142305	      0.90462899	     23.06251676	     -2.96064599	      0.00000000	     28.93334745	    -12.25040716	     -5.44888323	    116.15950753	      2.02736586	     -6.55680244	    -21.15796441	      0.00000000
      7.67333333	     -8.30535924	     -7.34890818	    -12.79752523	      2.02643094	      0.94514819	      1.06020263	     29.66147279	     19.34574611	     10.53182366	     51.31646584	      0.89564129	     24.49291693	     -2.16140987	      0.00000000	     31.27180909	    -12.68089351	     -4.65026959	    116.83316217	      2.03912336	     -5.87552918	    -20.89350156	      0.00000000
      7.68000000	     -8.21014447	     -7.08148272	    -12.79813378	      2.02551677	      0.94736336	      1.06016344	     27.54401239	     18.77714880	     11.17202385	     50.55626591	      0.88237330	     25.47580429	     -1.69494795	      0.00000000	     33.57071617	    -12.74786810	     -4.12848307	    117.07592642	      2.04336039	     -5.33558943	    -20.78369357	      0.00000000
